<svg xmlns="http://www.w3.org/2000/svg" width="300" height="300" fill="none"><path fill="#58C61D" d="M0 0h300v300H0z"/><mask id="a" width="300" height="300" x="0" y="0" maskUnits="userSpaceOnUse" style="mask-type:alpha"><path fill="red" d="M0 0h300v300H0z"/></mask><g fill="#fff" mask="url(#a)"><path d="M-13 0C-1.954 0 7 8.954 7 20s-8.954 20-20 20-20-8.954-20-20 8.954-20 20-20m.4 9.6c-5.522 0-10 4.477-10 10s4.478 10 10 10 10-4.478 10-10-4.477-10-10-10M52 0c11.046 0 20 8.954 20 20s-8.954 20-20 20-20-8.954-20-20S40.954 0 52 0m.4 9.6c-5.522 0-10 4.477-10 10s4.477 10 10 10 10-4.478 10-10-4.477-10-10-10M117 0c11.046 0 20 8.954 20 20s-8.954 20-20 20-20-8.954-20-20 8.954-20 20-20m.4 9.6c-5.522 0-9.999 4.477-10 10s4.478 10 10 10 10-4.478 10-10-4.477-10-10-10M182 0c11.046 0 20 8.954 20 20s-8.954 20-20 20-20-8.954-20-20 8.954-20 20-20m.4 9.6c-5.522 0-9.999 4.477-10 10s4.478 10 10 10 10-4.478 10-10-4.477-10-10-10M247 0c11.046 0 20 8.954 20 20s-8.954 20-20 20-20-8.954-20-20 8.954-20 20-20m.4 9.6c-5.522 0-9.999 4.477-10 10s4.478 10 10 10 10-4.478 10-10-4.477-10-10-10M312 0c11.046 0 20 8.954 20 20s-8.954 20-20 20-20-8.954-20-20 8.954-20 20-20m.4 9.6c-5.522 0-9.999 4.477-10 10s4.478 10 10 10 10-4.478 10-10-4.477-10-10-10M19.5 65c11.046 0 20 8.954 20 20s-8.954 20-20 20-20-8.954-20-20 8.954-20 20-20m.4 9.6c-5.522 0-10 4.477-10 10s4.477 10 10 10 10-4.478 10-10-4.477-10-10-10M84.5 65c11.046 0 20 8.954 20 20s-8.954 20-20 20-20-8.954-20-20 8.954-20 20-20m.4 9.6c-5.522 0-10 4.477-10 10s4.477 10 10 10 10-4.478 10-10-4.477-10-10-10M149.5 65c11.046 0 20 8.954 20 20s-8.954 20-20 20-20-8.954-20-20 8.954-20 20-20m.4 9.6c-5.522 0-9.999 4.477-10 10s4.478 10 10 10 10-4.478 10-10-4.477-10-10-10M214.5 65c11.046 0 20 8.954 20 20s-8.954 20-20 20-20-8.954-20-20 8.954-20 20-20m.4 9.6c-5.522 0-9.999 4.477-10 10s4.478 10 10 10 10-4.478 10-10-4.477-10-10-10M279.5 65c11.046 0 20 8.954 20 20s-8.954 20-20 20-20-8.954-20-20 8.954-20 20-20m.4 9.6c-5.522 0-9.999 4.477-10 10s4.478 10 10 10 10-4.478 10-10-4.477-10-10-10M19 195c11.046 0 20 8.954 20 20s-8.954 20-20 20-20-8.954-20-20 8.954-20 20-20m.4 9.6c-5.522 0-10 4.477-10 10s4.477 10 10 10c5.523-.001 10-4.478 10-10s-4.477-10-10-10M84 195c11.046 0 20 8.954 20 20s-8.954 20-20 20-20-8.954-20-20 8.954-20 20-20m.4 9.6c-5.522 0-10 4.477-10 10s4.477 10 10 10c5.523-.001 10-4.478 10-10s-4.477-10-10-10M149 195c11.046 0 20 8.954 20 20s-8.954 20-20 20-20-8.954-20-20 8.954-20 20-20m.4 9.6c-5.522 0-9.999 4.477-10 10s4.478 10 10 10c5.523-.001 10-4.478 10-10s-4.477-10-10-10M214 195c11.046 0 20 8.954 20 20s-8.954 20-20 20-20-8.954-20-20 8.954-20 20-20m.4 9.6c-5.522 0-9.999 4.477-10 10s4.478 10 10 10c5.523-.001 10-4.478 10-10s-4.477-10-10-10M279 195c11.046 0 20 8.954 20 20s-8.954 20-20 20-20-8.954-20-20 8.954-20 20-20m.4 9.6c-5.522 0-9.999 4.477-10 10s4.478 10 10 10c5.523-.001 10-4.478 10-10s-4.477-10-10-10M-13 130c11.046 0 20 8.954 20 20s-8.954 20-20 20-20-8.954-20-20 8.954-20 20-20m.4 9.6c-5.522 0-10 4.477-10 10s4.478 10 10 10c5.523-.001 10-4.478 10-10s-4.477-10-10-10M52 130c11.046 0 20 8.954 20 20s-8.954 20-20 20-20-8.954-20-20 8.954-20 20-20m.4 9.6c-5.522 0-10 4.477-10 10s4.477 10 10 10c5.523-.001 10-4.478 10-10s-4.477-10-10-10M117 130c11.046 0 20 8.954 20 20s-8.954 20-20 20-20-8.954-20-20 8.954-20 20-20m.4 9.6c-5.522 0-9.999 4.477-10 10s4.478 10 10 10c5.523-.001 10-4.478 10-10s-4.477-10-10-10M182 130c11.046 0 20 8.954 20 20s-8.954 20-20 20-20-8.954-20-20 8.954-20 20-20m.4 9.6c-5.522 0-9.999 4.477-10 10s4.478 10 10 10c5.523-.001 10-4.478 10-10s-4.477-10-10-10M247 130c11.046 0 20 8.954 20 20s-8.954 20-20 20-20-8.954-20-20 8.954-20 20-20m.4 9.6c-5.522 0-9.999 4.477-10 10s4.478 10 10 10c5.523-.001 10-4.478 10-10s-4.477-10-10-10M312 130c11.046 0 20 8.954 20 20s-8.954 20-20 20-20-8.954-20-20 8.954-20 20-20m.4 9.6c-5.522 0-9.999 4.477-10 10s4.478 10 10 10c5.523-.001 10-4.478 10-10s-4.477-10-10-10M-13 260c11.046 0 20 8.954 20 20s-8.954 20-20 20-20-8.954-20-20 8.954-20 20-20m.4 9.6c-5.522 0-10 4.477-10 10s4.478 10 10 10c5.523-.001 10-4.478 10-10s-4.477-10-10-10M52 260c11.046 0 20 8.954 20 20s-8.954 20-20 20-20-8.954-20-20 8.954-20 20-20m.4 9.6c-5.522 0-10 4.477-10 10s4.477 10 10 10c5.523-.001 10-4.478 10-10s-4.477-10-10-10M117 260c11.046 0 20 8.954 20 20s-8.954 20-20 20-20-8.954-20-20 8.954-20 20-20m.4 9.6c-5.522 0-9.999 4.477-10 10s4.478 10 10 10c5.523-.001 10-4.478 10-10s-4.477-10-10-10M182 260c11.046 0 20 8.954 20 20s-8.954 20-20 20-20-8.954-20-20 8.954-20 20-20m.4 9.6c-5.522 0-9.999 4.477-10 10s4.478 10 10 10c5.523-.001 10-4.478 10-10s-4.477-10-10-10M247 260c11.046 0 20 8.954 20 20s-8.954 20-20 20-20-8.954-20-20 8.954-20 20-20m.4 9.6c-5.522 0-9.999 4.477-10 10s4.478 10 10 10c5.523-.001 10-4.478 10-10s-4.477-10-10-10M312 260c11.046 0 20 8.954 20 20s-8.954 20-20 20-20-8.954-20-20 8.954-20 20-20m.4 9.6c-5.522 0-9.999 4.477-10 10s4.478 10 10 10c5.523-.001 10-4.478 10-10s-4.477-10-10-10"/></g></svg>