<svg xmlns="http://www.w3.org/2000/svg" width="320" height="320" fill="none"><path fill="#58C61D" d="M0 0h320v320H0z"/><mask id="a" width="320" height="320" x="0" y="0" maskUnits="userSpaceOnUse" style="mask-type:alpha"><path fill="red" d="M0 0h320v320H0z"/></mask><g fill="#fff" mask="url(#a)"><path d="M0-20c11.046 0 20 8.954 20 20S11.046 20 0 20s-20-8.954-20-20 8.954-20 20-20m.4 9.6c-5.522 0-10 4.477-10 10s4.478 10 10 10 10-4.478 10-10-4.477-10-10-10M65-20c11.046 0 20 8.954 20 20s-8.954 20-20 20-20-8.954-20-20 8.954-20 20-20m.4 9.6c-5.522 0-10 4.477-10 10s4.477 10 10 10 10-4.478 10-10-4.477-10-10-10M130-20c11.046 0 20 8.954 20 20s-8.954 20-20 20-20-8.954-20-20 8.954-20 20-20m.4 9.6c-5.522 0-9.999 4.477-10 10s4.478 10 10 10 10-4.478 10-10-4.477-10-10-10M195-20c11.046 0 20 8.954 20 20s-8.954 20-20 20-20-8.954-20-20 8.954-20 20-20m.4 9.6c-5.522 0-9.999 4.477-10 10s4.478 10 10 10 10-4.478 10-10-4.477-10-10-10M260-20c11.046 0 20 8.954 20 20s-8.954 20-20 20-20-8.954-20-20 8.954-20 20-20m.4 9.6c-5.522 0-9.999 4.477-10 10s4.478 10 10 10 10-4.478 10-10-4.477-10-10-10M325-20c11.046 0 20 8.954 20 20s-8.954 20-20 20-20-8.954-20-20 8.954-20 20-20m.4 9.6c-5.522 0-9.999 4.477-10 10s4.478 10 10 10 10-4.478 10-10-4.477-10-10-10M32.5 45c11.046 0 20 8.954 20 20s-8.954 20-20 20-20-8.954-20-20 8.954-20 20-20m.4 9.6c-5.522 0-10 4.477-10 10s4.478 10 10 10 10-4.478 10-10-4.477-10-10-10M31.5 175c11.046 0 20 8.954 20 20s-8.954 20-20 20-20-8.954-20-20 8.954-20 20-20m.4 9.6c-5.522 0-10 4.477-10 10s4.478 10 10 10c5.523-.001 10-4.478 10-10s-4.477-10-10-10M97.5 45c11.046 0 20 8.954 20 20s-8.954 20-20 20-20-8.954-20-20 8.954-20 20-20m.4 9.6c-5.522 0-10 4.477-10 10s4.477 10 10 10 10-4.478 10-10-4.477-10-10-10M96.5 175c11.046 0 20 8.954 20 20s-8.954 20-20 20-20-8.954-20-20 8.954-20 20-20m.4 9.6c-5.522 0-10 4.477-10 10s4.477 10 10 10c5.523-.001 10-4.478 10-10s-4.477-10-10-10M162.5 45c11.046 0 20 8.954 20 20s-8.954 20-20 20-20-8.954-20-20 8.954-20 20-20m.4 9.6c-5.522 0-9.999 4.477-10 10s4.478 10 10 10 10-4.478 10-10-4.477-10-10-10M161.5 175c11.046 0 20 8.954 20 20s-8.954 20-20 20-20-8.954-20-20 8.954-20 20-20m.4 9.6c-5.522 0-9.999 4.477-10 10s4.478 10 10 10c5.523-.001 10-4.478 10-10s-4.477-10-10-10M227.5 45c11.046 0 20 8.954 20 20s-8.954 20-20 20-20-8.954-20-20 8.954-20 20-20m.4 9.6c-5.522 0-9.999 4.477-10 10s4.478 10 10 10 10-4.478 10-10-4.477-10-10-10M226.5 175c11.046 0 20 8.954 20 20s-8.954 20-20 20-20-8.954-20-20 8.954-20 20-20m.4 9.6c-5.522 0-9.999 4.477-10 10s4.478 10 10 10c5.523-.001 10-4.478 10-10s-4.477-10-10-10M292.5 45c11.046 0 20 8.954 20 20s-8.954 20-20 20-20-8.954-20-20 8.954-20 20-20m.4 9.6c-5.522 0-9.999 4.477-10 10s4.478 10 10 10 10-4.478 10-10-4.477-10-10-10M291.5 175c11.046 0 20 8.954 20 20s-8.954 20-20 20-20-8.954-20-20 8.954-20 20-20m.4 9.6c-5.522 0-9.999 4.477-10 10s4.478 10 10 10c5.523-.001 10-4.478 10-10s-4.477-10-10-10M31 305c11.046 0 20 8.954 20 20s-8.954 20-20 20-20-8.954-20-20 8.954-20 20-20m.4 9.6c-5.522 0-10 4.477-10 10s4.478 10 10 10c5.523-.001 10-4.478 10-10s-4.477-10-10-10M96 305c11.046 0 20 8.954 20 20s-8.954 20-20 20-20-8.954-20-20 8.954-20 20-20m.4 9.6c-5.522 0-10 4.477-10 10s4.477 10 10 10c5.523-.001 10-4.478 10-10s-4.477-10-10-10M161 305c11.046 0 20 8.954 20 20s-8.954 20-20 20-20-8.954-20-20 8.954-20 20-20m.4 9.6c-5.522 0-9.999 4.477-10 10s4.478 10 10 10c5.523-.001 10-4.478 10-10s-4.477-10-10-10M226 305c11.046 0 20 8.954 20 20s-8.954 20-20 20-20-8.954-20-20 8.954-20 20-20m.4 9.6c-5.522 0-9.999 4.477-10 10s4.478 10 10 10c5.523-.001 10-4.478 10-10s-4.477-10-10-10M291 305c11.046 0 20 8.954 20 20s-8.954 20-20 20-20-8.954-20-20 8.954-20 20-20m.4 9.6c-5.522 0-9.999 4.477-10 10s4.478 10 10 10c5.523-.001 10-4.478 10-10s-4.477-10-10-10M0 110c11.046 0 20 8.954 20 20s-8.954 20-20 20-20-8.954-20-20 8.954-20 20-20m.4 9.6c-5.522 0-10 4.477-10 10s4.478 10 10 10c5.523-.001 10-4.478 10-10s-4.477-10-10-10M65 110c11.046 0 20 8.954 20 20s-8.954 20-20 20-20-8.954-20-20 8.954-20 20-20m.4 9.6c-5.522 0-10 4.477-10 10s4.477 10 10 10c5.523-.001 10-4.478 10-10s-4.477-10-10-10M130 110c11.046 0 20 8.954 20 20s-8.954 20-20 20-20-8.954-20-20 8.954-20 20-20m.4 9.6c-5.522 0-9.999 4.477-10 10s4.478 10 10 10c5.523-.001 10-4.478 10-10s-4.477-10-10-10M195 110c11.046 0 20 8.954 20 20s-8.954 20-20 20-20-8.954-20-20 8.954-20 20-20m.4 9.6c-5.522 0-9.999 4.477-10 10s4.478 10 10 10c5.523-.001 10-4.478 10-10s-4.477-10-10-10M260 110c11.046 0 20 8.954 20 20s-8.954 20-20 20-20-8.954-20-20 8.954-20 20-20m.4 9.6c-5.522 0-9.999 4.477-10 10s4.478 10 10 10c5.523-.001 10-4.478 10-10s-4.477-10-10-10M325 110c11.046 0 20 8.954 20 20s-8.954 20-20 20-20-8.954-20-20 8.954-20 20-20m.4 9.6c-5.522 0-9.999 4.477-10 10s4.478 10 10 10c5.523-.001 10-4.478 10-10s-4.477-10-10-10M0 240c11.046 0 20 8.954 20 20s-8.954 20-20 20-20-8.954-20-20 8.954-20 20-20m.4 9.6c-5.522 0-10 4.477-10 10s4.478 10 10 10c5.523-.001 10-4.478 10-10s-4.477-10-10-10M65 240c11.046 0 20 8.954 20 20s-8.954 20-20 20-20-8.954-20-20 8.954-20 20-20m.4 9.6c-5.522 0-10 4.477-10 10s4.477 10 10 10c5.523-.001 10-4.478 10-10s-4.477-10-10-10M130 240c11.046 0 20 8.954 20 20s-8.954 20-20 20-20-8.954-20-20 8.954-20 20-20m.4 9.6c-5.522 0-9.999 4.477-10 10s4.478 10 10 10c5.523-.001 10-4.478 10-10s-4.477-10-10-10M195 240c11.046 0 20 8.954 20 20s-8.954 20-20 20-20-8.954-20-20 8.954-20 20-20m.4 9.6c-5.522 0-9.999 4.477-10 10s4.478 10 10 10c5.523-.001 10-4.478 10-10s-4.477-10-10-10M260 240c11.046 0 20 8.954 20 20s-8.954 20-20 20-20-8.954-20-20 8.954-20 20-20m.4 9.6c-5.522 0-9.999 4.477-10 10s4.478 10 10 10c5.523-.001 10-4.478 10-10s-4.477-10-10-10M325 240c11.046 0 20 8.954 20 20s-8.954 20-20 20-20-8.954-20-20 8.954-20 20-20m.4 9.6c-5.522 0-9.999 4.477-10 10s4.478 10 10 10c5.523-.001 10-4.478 10-10s-4.477-10-10-10"/></g></svg>